<?xml version="1.0" encoding="utf-8" standalone="no"?>
<!DOCTYPE svg PUBLIC "-//W3C//DTD SVG 1.1//EN"
  "http://www.w3.org/Graphics/SVG/1.1/DTD/svg11.dtd">
<!-- Created with matplotlib (http://matplotlib.org/) -->
<svg height="432pt" version="1.1" viewBox="0 0 432 432" width="432pt" xmlns="http://www.w3.org/2000/svg" xmlns:xlink="http://www.w3.org/1999/xlink">
 <defs>
  <style type="text/css">
*{stroke-linecap:butt;stroke-linejoin:round;}
  </style>
 </defs>
 <g id="figure_1">
  <g id="patch_1">
   <path d="M 0 432 
L 432 432 
L 432 0 
L 0 0 
z
" style="fill:#ffffff;"/>
  </g>
  <g id="patch_2">
   <path d="M 54 384.48 
L 388.8 384.48 
L 388.8 51.84 
L 54 51.84 
z
" style="fill:#ffffff;"/>
  </g>
  <g id="pane3d_1">
   <g id="patch_3">
    <path d="M 355.623456 295.760277 
L 215.234075 253.118141 
L 214.871742 87.015985 
L 360.299346 120.619868 
" style="fill:#f2f2f2;opacity:0.5;stroke:#f2f2f2;stroke-linejoin:miter;"/>
   </g>
  </g>
  <g id="pane3d_2">
   <g id="patch_4">
    <path d="M 94.6786 304.543049 
L 215.234075 253.118141 
L 214.871742 87.015985 
L 89.88847 127.558509 
" style="fill:#e6e6e6;opacity:0.5;stroke:#e6e6e6;stroke-linejoin:miter;"/>
   </g>
  </g>
  <g id="pane3d_3">
   <g id="patch_5">
    <path d="M 238.168243 353.964973 
L 355.623456 295.760277 
L 215.234075 253.118141 
L 94.6786 304.543049 
" style="fill:#ececec;opacity:0.5;stroke:#ececec;stroke-linejoin:miter;"/>
   </g>
  </g>
  <g id="axis3d_1">
   <g id="line2d_1">
    <path d="M 355.623456 295.760277 
L 238.168243 353.964973 
" style="fill:none;stroke:#000000;stroke-linecap:square;stroke-width:0.8;"/>
   </g>
   <g id="text_1">
    <!-- |omega| -->
    <defs>
     <path d="M 21 76.421875 
L 21 -23.578125 
L 12.703125 -23.578125 
L 12.703125 76.421875 
z
" id="DejaVuSans-7c"/>
     <path d="M 30.609375 48.390625 
Q 23.390625 48.390625 19.1875 42.75 
Q 14.984375 37.109375 14.984375 27.296875 
Q 14.984375 17.484375 19.15625 11.84375 
Q 23.34375 6.203125 30.609375 6.203125 
Q 37.796875 6.203125 41.984375 11.859375 
Q 46.1875 17.53125 46.1875 27.296875 
Q 46.1875 37.015625 41.984375 42.703125 
Q 37.796875 48.390625 30.609375 48.390625 
z
M 30.609375 56 
Q 42.328125 56 49.015625 48.375 
Q 55.71875 40.765625 55.71875 27.296875 
Q 55.71875 13.875 49.015625 6.21875 
Q 42.328125 -1.421875 30.609375 -1.421875 
Q 18.84375 -1.421875 12.171875 6.21875 
Q 5.515625 13.875 5.515625 27.296875 
Q 5.515625 40.765625 12.171875 48.375 
Q 18.84375 56 30.609375 56 
z
" id="DejaVuSans-6f"/>
     <path d="M 52 44.1875 
Q 55.375 50.25 60.0625 53.125 
Q 64.75 56 71.09375 56 
Q 79.640625 56 84.28125 50.015625 
Q 88.921875 44.046875 88.921875 33.015625 
L 88.921875 0 
L 79.890625 0 
L 79.890625 32.71875 
Q 79.890625 40.578125 77.09375 44.375 
Q 74.3125 48.1875 68.609375 48.1875 
Q 61.625 48.1875 57.5625 43.546875 
Q 53.515625 38.921875 53.515625 30.90625 
L 53.515625 0 
L 44.484375 0 
L 44.484375 32.71875 
Q 44.484375 40.625 41.703125 44.40625 
Q 38.921875 48.1875 33.109375 48.1875 
Q 26.21875 48.1875 22.15625 43.53125 
Q 18.109375 38.875 18.109375 30.90625 
L 18.109375 0 
L 9.078125 0 
L 9.078125 54.6875 
L 18.109375 54.6875 
L 18.109375 46.1875 
Q 21.1875 51.21875 25.484375 53.609375 
Q 29.78125 56 35.6875 56 
Q 41.65625 56 45.828125 52.96875 
Q 50 49.953125 52 44.1875 
z
" id="DejaVuSans-6d"/>
     <path d="M 56.203125 29.59375 
L 56.203125 25.203125 
L 14.890625 25.203125 
Q 15.484375 15.921875 20.484375 11.0625 
Q 25.484375 6.203125 34.421875 6.203125 
Q 39.59375 6.203125 44.453125 7.46875 
Q 49.3125 8.734375 54.109375 11.28125 
L 54.109375 2.78125 
Q 49.265625 0.734375 44.1875 -0.34375 
Q 39.109375 -1.421875 33.890625 -1.421875 
Q 20.796875 -1.421875 13.15625 6.1875 
Q 5.515625 13.8125 5.515625 26.8125 
Q 5.515625 40.234375 12.765625 48.109375 
Q 20.015625 56 32.328125 56 
Q 43.359375 56 49.78125 48.890625 
Q 56.203125 41.796875 56.203125 29.59375 
z
M 47.21875 32.234375 
Q 47.125 39.59375 43.09375 43.984375 
Q 39.0625 48.390625 32.421875 48.390625 
Q 24.90625 48.390625 20.390625 44.140625 
Q 15.875 39.890625 15.1875 32.171875 
z
" id="DejaVuSans-65"/>
     <path d="M 45.40625 27.984375 
Q 45.40625 37.75 41.375 43.109375 
Q 37.359375 48.484375 30.078125 48.484375 
Q 22.859375 48.484375 18.828125 43.109375 
Q 14.796875 37.75 14.796875 27.984375 
Q 14.796875 18.265625 18.828125 12.890625 
Q 22.859375 7.515625 30.078125 7.515625 
Q 37.359375 7.515625 41.375 12.890625 
Q 45.40625 18.265625 45.40625 27.984375 
z
M 54.390625 6.78125 
Q 54.390625 -7.171875 48.1875 -13.984375 
Q 42 -20.796875 29.203125 -20.796875 
Q 24.46875 -20.796875 20.265625 -20.09375 
Q 16.0625 -19.390625 12.109375 -17.921875 
L 12.109375 -9.1875 
Q 16.0625 -11.328125 19.921875 -12.34375 
Q 23.78125 -13.375 27.78125 -13.375 
Q 36.625 -13.375 41.015625 -8.765625 
Q 45.40625 -4.15625 45.40625 5.171875 
L 45.40625 9.625 
Q 42.625 4.78125 38.28125 2.390625 
Q 33.9375 0 27.875 0 
Q 17.828125 0 11.671875 7.65625 
Q 5.515625 15.328125 5.515625 27.984375 
Q 5.515625 40.671875 11.671875 48.328125 
Q 17.828125 56 27.875 56 
Q 33.9375 56 38.28125 53.609375 
Q 42.625 51.21875 45.40625 46.390625 
L 45.40625 54.6875 
L 54.390625 54.6875 
z
" id="DejaVuSans-67"/>
     <path d="M 34.28125 27.484375 
Q 23.390625 27.484375 19.1875 25 
Q 14.984375 22.515625 14.984375 16.5 
Q 14.984375 11.71875 18.140625 8.90625 
Q 21.296875 6.109375 26.703125 6.109375 
Q 34.1875 6.109375 38.703125 11.40625 
Q 43.21875 16.703125 43.21875 25.484375 
L 43.21875 27.484375 
z
M 52.203125 31.203125 
L 52.203125 0 
L 43.21875 0 
L 43.21875 8.296875 
Q 40.140625 3.328125 35.546875 0.953125 
Q 30.953125 -1.421875 24.3125 -1.421875 
Q 15.921875 -1.421875 10.953125 3.296875 
Q 6 8.015625 6 15.921875 
Q 6 25.140625 12.171875 29.828125 
Q 18.359375 34.515625 30.609375 34.515625 
L 43.21875 34.515625 
L 43.21875 35.40625 
Q 43.21875 41.609375 39.140625 45 
Q 35.0625 48.390625 27.6875 48.390625 
Q 23 48.390625 18.546875 47.265625 
Q 14.109375 46.140625 10.015625 43.890625 
L 10.015625 52.203125 
Q 14.9375 54.109375 19.578125 55.046875 
Q 24.21875 56 28.609375 56 
Q 40.484375 56 46.34375 49.84375 
Q 52.203125 43.703125 52.203125 31.203125 
z
" id="DejaVuSans-61"/>
    </defs>
    <g transform="translate(303.266366 367.512636)rotate(-26.360623)scale(0.1 -0.1)">
     <use xlink:href="#DejaVuSans-7c"/>
     <use x="33.691406" xlink:href="#DejaVuSans-6f"/>
     <use x="94.873047" xlink:href="#DejaVuSans-6d"/>
     <use x="192.285156" xlink:href="#DejaVuSans-65"/>
     <use x="253.808594" xlink:href="#DejaVuSans-67"/>
     <use x="317.285156" xlink:href="#DejaVuSans-61"/>
     <use x="378.564453" xlink:href="#DejaVuSans-7c"/>
    </g>
   </g>
   <g id="Line3DCollection_1">
    <path d="M 246.192978 349.988332 
L 102.880189 301.044527 
L 98.411242 124.793861 
" style="fill:none;stroke:#b0b0b0;stroke-width:0.8;"/>
    <path d="M 273.10696 336.651162 
L 130.424637 289.294992 
L 127.013001 115.51592 
" style="fill:none;stroke:#b0b0b0;stroke-width:0.8;"/>
    <path d="M 299.128126 323.756425 
L 157.110145 277.911853 
L 154.691501 106.537468 
" style="fill:none;stroke:#b0b0b0;stroke-width:0.8;"/>
    <path d="M 324.300176 311.282466 
L 182.976275 266.878233 
L 181.490735 97.844236 
" style="fill:none;stroke:#b0b0b0;stroke-width:0.8;"/>
   </g>
   <g id="xtick_1">
    <g id="line2d_2">
     <path d="M 244.971476 349.571168 
L 248.639854 350.823983 
" style="fill:none;stroke:#000000;stroke-linecap:square;stroke-width:0.8;"/>
    </g>
    <g id="text_2">
     <!-- 5 -->
     <defs>
      <path d="M 10.796875 72.90625 
L 49.515625 72.90625 
L 49.515625 64.59375 
L 19.828125 64.59375 
L 19.828125 46.734375 
Q 21.96875 47.46875 24.109375 47.828125 
Q 26.265625 48.1875 28.421875 48.1875 
Q 40.625 48.1875 47.75 41.5 
Q 54.890625 34.8125 54.890625 23.390625 
Q 54.890625 11.625 47.5625 5.09375 
Q 40.234375 -1.421875 26.90625 -1.421875 
Q 22.3125 -1.421875 17.546875 -0.640625 
Q 12.796875 0.140625 7.71875 1.703125 
L 7.71875 11.625 
Q 12.109375 9.234375 16.796875 8.0625 
Q 21.484375 6.890625 26.703125 6.890625 
Q 35.15625 6.890625 40.078125 11.328125 
Q 45.015625 15.765625 45.015625 23.390625 
Q 45.015625 31 40.078125 35.4375 
Q 35.15625 39.890625 26.703125 39.890625 
Q 22.75 39.890625 18.8125 39.015625 
Q 14.890625 38.140625 10.796875 36.28125 
z
" id="DejaVuSans-35"/>
     </defs>
     <g transform="translate(253.088355 372.941853)scale(0.1 -0.1)">
      <use xlink:href="#DejaVuSans-35"/>
     </g>
    </g>
   </g>
   <g id="xtick_2">
    <g id="line2d_3">
     <path d="M 271.892091 336.247947 
L 275.540485 337.458847 
" style="fill:none;stroke:#000000;stroke-linecap:square;stroke-width:0.8;"/>
    </g>
    <g id="text_3">
     <!-- 6 -->
     <defs>
      <path d="M 33.015625 40.375 
Q 26.375 40.375 22.484375 35.828125 
Q 18.609375 31.296875 18.609375 23.390625 
Q 18.609375 15.53125 22.484375 10.953125 
Q 26.375 6.390625 33.015625 6.390625 
Q 39.65625 6.390625 43.53125 10.953125 
Q 47.40625 15.53125 47.40625 23.390625 
Q 47.40625 31.296875 43.53125 35.828125 
Q 39.65625 40.375 33.015625 40.375 
z
M 52.59375 71.296875 
L 52.59375 62.3125 
Q 48.875 64.0625 45.09375 64.984375 
Q 41.3125 65.921875 37.59375 65.921875 
Q 27.828125 65.921875 22.671875 59.328125 
Q 17.53125 52.734375 16.796875 39.40625 
Q 19.671875 43.65625 24.015625 45.921875 
Q 28.375 48.1875 33.59375 48.1875 
Q 44.578125 48.1875 50.953125 41.515625 
Q 57.328125 34.859375 57.328125 23.390625 
Q 57.328125 12.15625 50.6875 5.359375 
Q 44.046875 -1.421875 33.015625 -1.421875 
Q 20.359375 -1.421875 13.671875 8.265625 
Q 6.984375 17.96875 6.984375 36.375 
Q 6.984375 53.65625 15.1875 63.9375 
Q 23.390625 74.21875 37.203125 74.21875 
Q 40.921875 74.21875 44.703125 73.484375 
Q 48.484375 72.75 52.59375 71.296875 
z
" id="DejaVuSans-36"/>
     </defs>
     <g transform="translate(279.882262 359.320343)scale(0.1 -0.1)">
      <use xlink:href="#DejaVuSans-36"/>
     </g>
    </g>
   </g>
   <g id="xtick_3">
    <g id="line2d_4">
     <path d="M 297.920125 323.366472 
L 301.547831 324.537526 
" style="fill:none;stroke:#000000;stroke-linecap:square;stroke-width:0.8;"/>
    </g>
    <g id="text_4">
     <!-- 8 -->
     <defs>
      <path d="M 31.78125 34.625 
Q 24.75 34.625 20.71875 30.859375 
Q 16.703125 27.09375 16.703125 20.515625 
Q 16.703125 13.921875 20.71875 10.15625 
Q 24.75 6.390625 31.78125 6.390625 
Q 38.8125 6.390625 42.859375 10.171875 
Q 46.921875 13.96875 46.921875 20.515625 
Q 46.921875 27.09375 42.890625 30.859375 
Q 38.875 34.625 31.78125 34.625 
z
M 21.921875 38.8125 
Q 15.578125 40.375 12.03125 44.71875 
Q 8.5 49.078125 8.5 55.328125 
Q 8.5 64.0625 14.71875 69.140625 
Q 20.953125 74.21875 31.78125 74.21875 
Q 42.671875 74.21875 48.875 69.140625 
Q 55.078125 64.0625 55.078125 55.328125 
Q 55.078125 49.078125 51.53125 44.71875 
Q 48 40.375 41.703125 38.8125 
Q 48.828125 37.15625 52.796875 32.3125 
Q 56.78125 27.484375 56.78125 20.515625 
Q 56.78125 9.90625 50.3125 4.234375 
Q 43.84375 -1.421875 31.78125 -1.421875 
Q 19.734375 -1.421875 13.25 4.234375 
Q 6.78125 9.90625 6.78125 20.515625 
Q 6.78125 27.484375 10.78125 32.3125 
Q 14.796875 37.15625 21.921875 38.8125 
z
M 18.3125 54.390625 
Q 18.3125 48.734375 21.84375 45.5625 
Q 25.390625 42.390625 31.78125 42.390625 
Q 38.140625 42.390625 41.71875 45.5625 
Q 45.3125 48.734375 45.3125 54.390625 
Q 45.3125 60.0625 41.71875 63.234375 
Q 38.140625 66.40625 31.78125 66.40625 
Q 25.390625 66.40625 21.84375 63.234375 
Q 18.3125 60.0625 18.3125 54.390625 
z
" id="DejaVuSans-38"/>
     </defs>
     <g transform="translate(305.785706 346.151527)scale(0.1 -0.1)">
      <use xlink:href="#DejaVuSans-38"/>
     </g>
    </g>
   </g>
   <g id="xtick_4">
    <g id="line2d_5">
     <path d="M 323.099245 310.905131 
L 326.70566 312.038273 
" style="fill:none;stroke:#000000;stroke-linecap:square;stroke-width:0.8;"/>
    </g>
    <g id="text_5">
     <!-- 10 -->
     <defs>
      <path d="M 12.40625 8.296875 
L 28.515625 8.296875 
L 28.515625 63.921875 
L 10.984375 60.40625 
L 10.984375 69.390625 
L 28.421875 72.90625 
L 38.28125 72.90625 
L 38.28125 8.296875 
L 54.390625 8.296875 
L 54.390625 0 
L 12.40625 0 
z
" id="DejaVuSans-31"/>
      <path d="M 31.78125 66.40625 
Q 24.171875 66.40625 20.328125 58.90625 
Q 16.5 51.421875 16.5 36.375 
Q 16.5 21.390625 20.328125 13.890625 
Q 24.171875 6.390625 31.78125 6.390625 
Q 39.453125 6.390625 43.28125 13.890625 
Q 47.125 21.390625 47.125 36.375 
Q 47.125 51.421875 43.28125 58.90625 
Q 39.453125 66.40625 31.78125 66.40625 
z
M 31.78125 74.21875 
Q 44.046875 74.21875 50.515625 64.515625 
Q 56.984375 54.828125 56.984375 36.375 
Q 56.984375 17.96875 50.515625 8.265625 
Q 44.046875 -1.421875 31.78125 -1.421875 
Q 19.53125 -1.421875 13.0625 8.265625 
Q 6.59375 17.96875 6.59375 36.375 
Q 6.59375 54.828125 13.0625 64.515625 
Q 19.53125 74.21875 31.78125 74.21875 
z
" id="DejaVuSans-30"/>
     </defs>
     <g transform="translate(327.6611 333.413208)scale(0.1 -0.1)">
      <use xlink:href="#DejaVuSans-31"/>
      <use x="63.623047" xlink:href="#DejaVuSans-30"/>
     </g>
    </g>
   </g>
  </g>
  <g id="axis3d_2">
   <g id="line2d_6">
    <path d="M 94.6786 304.543049 
L 238.168243 353.964973 
" style="fill:none;stroke:#000000;stroke-linecap:square;stroke-width:0.8;"/>
   </g>
   <g id="text_6">
    <!-- |lins| -->
    <defs>
     <path d="M 9.421875 75.984375 
L 18.40625 75.984375 
L 18.40625 0 
L 9.421875 0 
z
" id="DejaVuSans-6c"/>
     <path d="M 9.421875 54.6875 
L 18.40625 54.6875 
L 18.40625 0 
L 9.421875 0 
z
M 9.421875 75.984375 
L 18.40625 75.984375 
L 18.40625 64.59375 
L 9.421875 64.59375 
z
" id="DejaVuSans-69"/>
     <path d="M 54.890625 33.015625 
L 54.890625 0 
L 45.90625 0 
L 45.90625 32.71875 
Q 45.90625 40.484375 42.875 44.328125 
Q 39.84375 48.1875 33.796875 48.1875 
Q 26.515625 48.1875 22.3125 43.546875 
Q 18.109375 38.921875 18.109375 30.90625 
L 18.109375 0 
L 9.078125 0 
L 9.078125 54.6875 
L 18.109375 54.6875 
L 18.109375 46.1875 
Q 21.34375 51.125 25.703125 53.5625 
Q 30.078125 56 35.796875 56 
Q 45.21875 56 50.046875 50.171875 
Q 54.890625 44.34375 54.890625 33.015625 
z
" id="DejaVuSans-6e"/>
     <path d="M 44.28125 53.078125 
L 44.28125 44.578125 
Q 40.484375 46.53125 36.375 47.5 
Q 32.28125 48.484375 27.875 48.484375 
Q 21.1875 48.484375 17.84375 46.4375 
Q 14.5 44.390625 14.5 40.28125 
Q 14.5 37.15625 16.890625 35.375 
Q 19.28125 33.59375 26.515625 31.984375 
L 29.59375 31.296875 
Q 39.15625 29.25 43.1875 25.515625 
Q 47.21875 21.78125 47.21875 15.09375 
Q 47.21875 7.46875 41.1875 3.015625 
Q 35.15625 -1.421875 24.609375 -1.421875 
Q 20.21875 -1.421875 15.453125 -0.5625 
Q 10.6875 0.296875 5.421875 2 
L 5.421875 11.28125 
Q 10.40625 8.6875 15.234375 7.390625 
Q 20.0625 6.109375 24.8125 6.109375 
Q 31.15625 6.109375 34.5625 8.28125 
Q 37.984375 10.453125 37.984375 14.40625 
Q 37.984375 18.0625 35.515625 20.015625 
Q 33.0625 21.96875 24.703125 23.78125 
L 21.578125 24.515625 
Q 13.234375 26.265625 9.515625 29.90625 
Q 5.8125 33.546875 5.8125 39.890625 
Q 5.8125 47.609375 11.28125 51.796875 
Q 16.75 56 26.8125 56 
Q 31.78125 56 36.171875 55.265625 
Q 40.578125 54.546875 44.28125 53.078125 
z
" id="DejaVuSans-73"/>
    </defs>
    <g transform="translate(133.749163 360.958796)rotate(-340.994832)scale(0.1 -0.1)">
     <use xlink:href="#DejaVuSans-7c"/>
     <use x="33.691406" xlink:href="#DejaVuSans-6c"/>
     <use x="61.474609" xlink:href="#DejaVuSans-69"/>
     <use x="89.257812" xlink:href="#DejaVuSans-6e"/>
     <use x="152.636719" xlink:href="#DejaVuSans-73"/>
     <use x="204.736328" xlink:href="#DejaVuSans-7c"/>
    </g>
   </g>
   <g id="Line3DCollection_2">
    <path d="M 339.387247 115.78772 
L 335.471852 289.639391 
L 217.49097 346.843131 
" style="fill:none;stroke:#b0b0b0;stroke-width:0.8;"/>
    <path d="M 317.474195 110.724282 
L 314.342738 283.221594 
L 195.839816 339.385856 
" style="fill:none;stroke:#b0b0b0;stroke-width:0.8;"/>
    <path d="M 295.956267 105.752145 
L 293.581693 276.915595 
L 174.594809 332.06847 
" style="fill:none;stroke:#b0b0b0;stroke-width:0.8;"/>
    <path d="M 274.82287 100.868862 
L 273.179183 270.718498 
L 153.744628 324.887073 
" style="fill:none;stroke:#b0b0b0;stroke-width:0.8;"/>
    <path d="M 254.063789 96.072071 
L 253.126 264.627506 
L 133.278367 317.837909 
" style="fill:none;stroke:#b0b0b0;stroke-width:0.8;"/>
    <path d="M 233.669165 91.359496 
L 233.413248 258.639917 
L 113.18552 310.91736 
" style="fill:none;stroke:#b0b0b0;stroke-width:0.8;"/>
   </g>
   <g id="xtick_5">
    <g id="line2d_7">
     <path d="M 218.508099 346.34997 
L 215.452884 347.83131 
" style="fill:none;stroke:#000000;stroke-linecap:square;stroke-width:0.8;"/>
    </g>
    <g id="text_7">
     <!-- 30 -->
     <defs>
      <path d="M 40.578125 39.3125 
Q 47.65625 37.796875 51.625 33 
Q 55.609375 28.21875 55.609375 21.1875 
Q 55.609375 10.40625 48.1875 4.484375 
Q 40.765625 -1.421875 27.09375 -1.421875 
Q 22.515625 -1.421875 17.65625 -0.515625 
Q 12.796875 0.390625 7.625 2.203125 
L 7.625 11.71875 
Q 11.71875 9.328125 16.59375 8.109375 
Q 21.484375 6.890625 26.8125 6.890625 
Q 36.078125 6.890625 40.9375 10.546875 
Q 45.796875 14.203125 45.796875 21.1875 
Q 45.796875 27.640625 41.28125 31.265625 
Q 36.765625 34.90625 28.71875 34.90625 
L 20.21875 34.90625 
L 20.21875 43.015625 
L 29.109375 43.015625 
Q 36.375 43.015625 40.234375 45.921875 
Q 44.09375 48.828125 44.09375 54.296875 
Q 44.09375 59.90625 40.109375 62.90625 
Q 36.140625 65.921875 28.71875 65.921875 
Q 24.65625 65.921875 20.015625 65.03125 
Q 15.375 64.15625 9.8125 62.3125 
L 9.8125 71.09375 
Q 15.4375 72.65625 20.34375 73.4375 
Q 25.25 74.21875 29.59375 74.21875 
Q 40.828125 74.21875 47.359375 69.109375 
Q 53.90625 64.015625 53.90625 55.328125 
Q 53.90625 49.265625 50.4375 45.09375 
Q 46.96875 40.921875 40.578125 39.3125 
z
" id="DejaVuSans-33"/>
     </defs>
     <g transform="translate(202.708993 370.400758)scale(0.1 -0.1)">
      <use xlink:href="#DejaVuSans-33"/>
      <use x="63.623047" xlink:href="#DejaVuSans-30"/>
     </g>
    </g>
   </g>
   <g id="xtick_6">
    <g id="line2d_8">
     <path d="M 196.860749 338.901987 
L 193.794143 340.355399 
" style="fill:none;stroke:#000000;stroke-linecap:square;stroke-width:0.8;"/>
    </g>
    <g id="text_8">
     <!-- 40 -->
     <defs>
      <path d="M 37.796875 64.3125 
L 12.890625 25.390625 
L 37.796875 25.390625 
z
M 35.203125 72.90625 
L 47.609375 72.90625 
L 47.609375 25.390625 
L 58.015625 25.390625 
L 58.015625 17.1875 
L 47.609375 17.1875 
L 47.609375 0 
L 37.796875 0 
L 37.796875 17.1875 
L 4.890625 17.1875 
L 4.890625 26.703125 
z
" id="DejaVuSans-34"/>
     </defs>
     <g transform="translate(181.079286 362.771827)scale(0.1 -0.1)">
      <use xlink:href="#DejaVuSans-34"/>
      <use x="63.623047" xlink:href="#DejaVuSans-30"/>
     </g>
    </g>
   </g>
   <g id="xtick_7">
    <g id="line2d_9">
     <path d="M 175.619226 331.593632 
L 172.542193 333.0199 
" style="fill:none;stroke:#000000;stroke-linecap:square;stroke-width:0.8;"/>
    </g>
    <g id="text_9">
     <!-- 50 -->
     <g transform="translate(159.85641 355.286387)scale(0.1 -0.1)">
      <use xlink:href="#DejaVuSans-35"/>
      <use x="63.623047" xlink:href="#DejaVuSans-30"/>
     </g>
    </g>
   </g>
   <g id="xtick_8">
    <g id="line2d_10">
     <path d="M 154.772223 324.421016 
L 151.685679 325.820893 
" style="fill:none;stroke:#000000;stroke-linecap:square;stroke-width:0.8;"/>
    </g>
    <g id="text_10">
     <!-- 60 -->
     <g transform="translate(139.028993 347.940429)scale(0.1 -0.1)">
      <use xlink:href="#DejaVuSans-36"/>
      <use x="63.623047" xlink:href="#DejaVuSans-30"/>
     </g>
    </g>
   </g>
   <g id="xtick_9">
    <g id="line2d_11">
     <path d="M 134.30885 317.380392 
L 131.213666 318.754603 
" style="fill:none;stroke:#000000;stroke-linecap:square;stroke-width:0.8;"/>
    </g>
    <g id="text_11">
     <!-- 80 -->
     <g transform="translate(118.586085 340.730089)scale(0.1 -0.1)">
      <use xlink:href="#DejaVuSans-38"/>
      <use x="63.623047" xlink:href="#DejaVuSans-30"/>
     </g>
    </g>
   </g>
   <g id="xtick_10">
    <g id="line2d_12">
     <path d="M 114.218615 310.468149 
L 111.115619 311.817395 
" style="fill:none;stroke:#000000;stroke-linecap:square;stroke-width:0.8;"/>
    </g>
    <g id="text_12">
     <!-- 100 -->
     <g transform="translate(95.335885 333.651647)scale(0.1 -0.1)">
      <use xlink:href="#DejaVuSans-31"/>
      <use x="63.623047" xlink:href="#DejaVuSans-30"/>
      <use x="127.246094" xlink:href="#DejaVuSans-30"/>
     </g>
    </g>
   </g>
  </g>
  <g id="axis3d_3">
   <g id="line2d_13">
    <path d="M 94.6786 304.543049 
L 89.88847 127.558509 
" style="fill:none;stroke:#000000;stroke-linecap:square;stroke-width:0.8;"/>
   </g>
   <g id="text_13">
    <!-- #timeout -->
    <defs>
     <path d="M 51.125 44 
L 36.921875 44 
L 32.8125 27.6875 
L 47.125 27.6875 
z
M 43.796875 71.78125 
L 38.71875 51.515625 
L 52.984375 51.515625 
L 58.109375 71.78125 
L 65.921875 71.78125 
L 60.890625 51.515625 
L 76.125 51.515625 
L 76.125 44 
L 58.984375 44 
L 54.984375 27.6875 
L 70.515625 27.6875 
L 70.515625 20.21875 
L 53.078125 20.21875 
L 48 0 
L 40.1875 0 
L 45.21875 20.21875 
L 30.90625 20.21875 
L 25.875 0 
L 18.015625 0 
L 23.09375 20.21875 
L 7.71875 20.21875 
L 7.71875 27.6875 
L 24.90625 27.6875 
L 29 44 
L 13.28125 44 
L 13.28125 51.515625 
L 30.90625 51.515625 
L 35.890625 71.78125 
z
" id="DejaVuSans-23"/>
     <path d="M 18.3125 70.21875 
L 18.3125 54.6875 
L 36.8125 54.6875 
L 36.8125 47.703125 
L 18.3125 47.703125 
L 18.3125 18.015625 
Q 18.3125 11.328125 20.140625 9.421875 
Q 21.96875 7.515625 27.59375 7.515625 
L 36.8125 7.515625 
L 36.8125 0 
L 27.59375 0 
Q 17.1875 0 13.234375 3.875 
Q 9.28125 7.765625 9.28125 18.015625 
L 9.28125 47.703125 
L 2.6875 47.703125 
L 2.6875 54.6875 
L 9.28125 54.6875 
L 9.28125 70.21875 
z
" id="DejaVuSans-74"/>
     <path d="M 8.5 21.578125 
L 8.5 54.6875 
L 17.484375 54.6875 
L 17.484375 21.921875 
Q 17.484375 14.15625 20.5 10.265625 
Q 23.53125 6.390625 29.59375 6.390625 
Q 36.859375 6.390625 41.078125 11.03125 
Q 45.3125 15.671875 45.3125 23.6875 
L 45.3125 54.6875 
L 54.296875 54.6875 
L 54.296875 0 
L 45.3125 0 
L 45.3125 8.40625 
Q 42.046875 3.421875 37.71875 1 
Q 33.40625 -1.421875 27.6875 -1.421875 
Q 18.265625 -1.421875 13.375 4.4375 
Q 8.5 10.296875 8.5 21.578125 
z
M 31.109375 56 
z
" id="DejaVuSans-75"/>
    </defs>
    <g transform="translate(50.195108 195.197321)rotate(-271.550346)scale(0.1 -0.1)">
     <use xlink:href="#DejaVuSans-23"/>
     <use x="83.789062" xlink:href="#DejaVuSans-74"/>
     <use x="122.998047" xlink:href="#DejaVuSans-69"/>
     <use x="150.78125" xlink:href="#DejaVuSans-6d"/>
     <use x="248.193359" xlink:href="#DejaVuSans-65"/>
     <use x="309.716797" xlink:href="#DejaVuSans-6f"/>
     <use x="370.898438" xlink:href="#DejaVuSans-75"/>
     <use x="434.277344" xlink:href="#DejaVuSans-74"/>
    </g>
   </g>
   <g id="Line3DCollection_3">
    <path d="M 94.586105 301.125592 
L 215.227061 249.902895 
L 355.713782 292.377003 
" style="fill:none;stroke:#b0b0b0;stroke-width:0.8;"/>
    <path d="M 94.140312 284.65452 
L 215.193267 234.410803 
L 356.149107 276.071469 
" style="fill:none;stroke:#b0b0b0;stroke-width:0.8;"/>
    <path d="M 93.691482 268.071254 
L 215.159259 218.820516 
L 356.587361 259.656186 
" style="fill:none;stroke:#b0b0b0;stroke-width:0.8;"/>
    <path d="M 93.239584 251.374643 
L 215.125034 203.1311 
L 357.028575 243.130043 
" style="fill:none;stroke:#b0b0b0;stroke-width:0.8;"/>
    <path d="M 92.784587 234.563522 
L 215.090591 187.341604 
L 357.472779 226.491914 
" style="fill:none;stroke:#b0b0b0;stroke-width:0.8;"/>
    <path d="M 92.326458 217.636707 
L 215.055927 171.451068 
L 357.920004 209.740655 
" style="fill:none;stroke:#b0b0b0;stroke-width:0.8;"/>
    <path d="M 91.865166 200.593002 
L 215.021041 155.45852 
L 358.370279 192.87511 
" style="fill:none;stroke:#b0b0b0;stroke-width:0.8;"/>
    <path d="M 91.400678 183.43119 
L 214.985931 139.362973 
L 358.823637 175.894104 
" style="fill:none;stroke:#b0b0b0;stroke-width:0.8;"/>
    <path d="M 90.932959 166.150041 
L 214.950593 123.163431 
L 359.28011 158.796448 
" style="fill:none;stroke:#b0b0b0;stroke-width:0.8;"/>
    <path d="M 90.461977 148.748304 
L 214.915027 106.85888 
L 359.739729 141.580936 
" style="fill:none;stroke:#b0b0b0;stroke-width:0.8;"/>
    <path d="M 89.987697 131.224713 
L 214.879229 90.448298 
L 360.202527 124.246344 
" style="fill:none;stroke:#b0b0b0;stroke-width:0.8;"/>
   </g>
   <g id="xtick_11">
    <g id="line2d_14">
     <path d="M 95.622195 300.685681 
L 92.510233 302.006982 
" style="fill:none;stroke:#000000;stroke-linecap:square;stroke-width:0.8;"/>
    </g>
    <g id="text_14">
     <!-- 0 -->
     <g transform="translate(73.90782 309.310234)scale(0.1 -0.1)">
      <use xlink:href="#DejaVuSans-30"/>
     </g>
    </g>
   </g>
   <g id="xtick_12">
    <g id="line2d_15">
     <path d="M 95.180181 284.222916 
L 92.056854 285.519271 
" style="fill:none;stroke:#000000;stroke-linecap:square;stroke-width:0.8;"/>
    </g>
    <g id="text_15">
     <!-- 10 -->
     <g transform="translate(70.220987 292.828095)scale(0.1 -0.1)">
      <use xlink:href="#DejaVuSans-31"/>
      <use x="63.623047" xlink:href="#DejaVuSans-30"/>
     </g>
    </g>
   </g>
   <g id="xtick_13">
    <g id="line2d_16">
     <path d="M 94.735159 267.648081 
L 91.600382 268.919118 
" style="fill:none;stroke:#000000;stroke-linecap:square;stroke-width:0.8;"/>
    </g>
    <g id="text_16">
     <!-- 20 -->
     <defs>
      <path d="M 19.1875 8.296875 
L 53.609375 8.296875 
L 53.609375 0 
L 7.328125 0 
L 7.328125 8.296875 
Q 12.9375 14.109375 22.625 23.890625 
Q 32.328125 33.6875 34.8125 36.53125 
Q 39.546875 41.84375 41.421875 45.53125 
Q 43.3125 49.21875 43.3125 52.78125 
Q 43.3125 58.59375 39.234375 62.25 
Q 35.15625 65.921875 28.609375 65.921875 
Q 23.96875 65.921875 18.8125 64.3125 
Q 13.671875 62.703125 7.8125 59.421875 
L 7.8125 69.390625 
Q 13.765625 71.78125 18.9375 73 
Q 24.125 74.21875 28.421875 74.21875 
Q 39.75 74.21875 46.484375 68.546875 
Q 53.21875 62.890625 53.21875 53.421875 
Q 53.21875 48.921875 51.53125 44.890625 
Q 49.859375 40.875 45.40625 35.40625 
Q 44.1875 33.984375 37.640625 27.21875 
Q 31.109375 20.453125 19.1875 8.296875 
z
" id="DejaVuSans-32"/>
     </defs>
     <g transform="translate(69.711957 276.233597)scale(0.1 -0.1)">
      <use xlink:href="#DejaVuSans-32"/>
      <use x="63.623047" xlink:href="#DejaVuSans-30"/>
     </g>
    </g>
   </g>
   <g id="xtick_14">
    <g id="line2d_17">
     <path d="M 94.287096 250.960027 
L 91.140787 252.205369 
" style="fill:none;stroke:#000000;stroke-linecap:square;stroke-width:0.8;"/>
    </g>
    <g id="text_17">
     <!-- 30 -->
     <g transform="translate(69.199445 259.525587)scale(0.1 -0.1)">
      <use xlink:href="#DejaVuSans-33"/>
      <use x="63.623047" xlink:href="#DejaVuSans-30"/>
     </g>
    </g>
   </g>
   <g id="xtick_15">
    <g id="line2d_18">
     <path d="M 93.835962 234.157589 
L 90.678036 235.376853 
" style="fill:none;stroke:#000000;stroke-linecap:square;stroke-width:0.8;"/>
    </g>
    <g id="text_18">
     <!-- 40 -->
     <g transform="translate(68.683416 242.702896)scale(0.1 -0.1)">
      <use xlink:href="#DejaVuSans-34"/>
      <use x="63.623047" xlink:href="#DejaVuSans-30"/>
     </g>
    </g>
   </g>
   <g id="xtick_16">
    <g id="line2d_19">
     <path d="M 93.381726 217.239588 
L 90.212097 218.432385 
" style="fill:none;stroke:#000000;stroke-linecap:square;stroke-width:0.8;"/>
    </g>
    <g id="text_19">
     <!-- 50 -->
     <g transform="translate(68.163832 225.76434)scale(0.1 -0.1)">
      <use xlink:href="#DejaVuSans-35"/>
      <use x="63.623047" xlink:href="#DejaVuSans-30"/>
     </g>
    </g>
   </g>
   <g id="xtick_17">
    <g id="line2d_20">
     <path d="M 92.924355 200.204828 
L 89.742936 201.370762 
" style="fill:none;stroke:#000000;stroke-linecap:square;stroke-width:0.8;"/>
    </g>
    <g id="text_20">
     <!-- 60 -->
     <g transform="translate(67.640658 208.708717)scale(0.1 -0.1)">
      <use xlink:href="#DejaVuSans-36"/>
      <use x="63.623047" xlink:href="#DejaVuSans-30"/>
     </g>
    </g>
   </g>
   <g id="xtick_18">
    <g id="line2d_21">
     <path d="M 92.463816 183.052095 
L 89.27052 184.190765 
" style="fill:none;stroke:#000000;stroke-linecap:square;stroke-width:0.8;"/>
    </g>
    <g id="text_21">
     <!-- 70 -->
     <defs>
      <path d="M 8.203125 72.90625 
L 55.078125 72.90625 
L 55.078125 68.703125 
L 28.609375 0 
L 18.3125 0 
L 43.21875 64.59375 
L 8.203125 64.59375 
z
" id="DejaVuSans-37"/>
     </defs>
     <g transform="translate(67.113855 191.534809)scale(0.1 -0.1)">
      <use xlink:href="#DejaVuSans-37"/>
      <use x="63.623047" xlink:href="#DejaVuSans-30"/>
     </g>
    </g>
   </g>
   <g id="xtick_19">
    <g id="line2d_22">
     <path d="M 92.000076 165.78016 
L 88.794815 166.891157 
" style="fill:none;stroke:#000000;stroke-linecap:square;stroke-width:0.8;"/>
    </g>
    <g id="text_22">
     <!-- 80 -->
     <g transform="translate(66.583385 174.241383)scale(0.1 -0.1)">
      <use xlink:href="#DejaVuSans-38"/>
      <use x="63.623047" xlink:href="#DejaVuSans-30"/>
     </g>
    </g>
   </g>
   <g id="xtick_20">
    <g id="line2d_23">
     <path d="M 91.533103 148.387775 
L 88.315787 149.470686 
" style="fill:none;stroke:#000000;stroke-linecap:square;stroke-width:0.8;"/>
    </g>
    <g id="text_23">
     <!-- 90 -->
     <defs>
      <path d="M 10.984375 1.515625 
L 10.984375 10.5 
Q 14.703125 8.734375 18.5 7.8125 
Q 22.3125 6.890625 25.984375 6.890625 
Q 35.75 6.890625 40.890625 13.453125 
Q 46.046875 20.015625 46.78125 33.40625 
Q 43.953125 29.203125 39.59375 26.953125 
Q 35.25 24.703125 29.984375 24.703125 
Q 19.046875 24.703125 12.671875 31.3125 
Q 6.296875 37.9375 6.296875 49.421875 
Q 6.296875 60.640625 12.9375 67.421875 
Q 19.578125 74.21875 30.609375 74.21875 
Q 43.265625 74.21875 49.921875 64.515625 
Q 56.59375 54.828125 56.59375 36.375 
Q 56.59375 19.140625 48.40625 8.859375 
Q 40.234375 -1.421875 26.421875 -1.421875 
Q 22.703125 -1.421875 18.890625 -0.6875 
Q 15.09375 0.046875 10.984375 1.515625 
z
M 30.609375 32.421875 
Q 37.25 32.421875 41.125 36.953125 
Q 45.015625 41.5 45.015625 49.421875 
Q 45.015625 57.28125 41.125 61.84375 
Q 37.25 66.40625 30.609375 66.40625 
Q 23.96875 66.40625 20.09375 61.84375 
Q 16.21875 57.28125 16.21875 49.421875 
Q 16.21875 41.5 20.09375 36.953125 
Q 23.96875 32.421875 30.609375 32.421875 
z
" id="DejaVuSans-39"/>
     </defs>
     <g transform="translate(66.049212 156.827185)scale(0.1 -0.1)">
      <use xlink:href="#DejaVuSans-39"/>
      <use x="63.623047" xlink:href="#DejaVuSans-30"/>
     </g>
    </g>
   </g>
   <g id="xtick_21">
    <g id="line2d_24">
     <path d="M 91.062862 130.873677 
L 87.8334 131.928079 
" style="fill:none;stroke:#000000;stroke-linecap:square;stroke-width:0.8;"/>
    </g>
    <g id="text_24">
     <!-- 100 -->
     <g transform="translate(62.330044 139.290947)scale(0.1 -0.1)">
      <use xlink:href="#DejaVuSans-31"/>
      <use x="63.623047" xlink:href="#DejaVuSans-30"/>
      <use x="127.246094" xlink:href="#DejaVuSans-30"/>
     </g>
    </g>
   </g>
  </g>
  <g id="axes_1">
   <g id="Poly3DCollection_1">
    <path clip-path="url(#p623f6ae29a)" d="M 211.118632 272.419015 
L 236.097188 261.495267 
L 216.512481 255.529239 
L 191.447388 266.266754 
z
" style="fill:#134a71;"/>
    <path clip-path="url(#p623f6ae29a)" d="M 236.097188 261.495267 
L 216.512481 255.529239 
L 216.20387 94.917597 
L 236.433705 99.659312 
z
" style="fill:#1f77b4;"/>
    <path clip-path="url(#p623f6ae29a)" d="M 231.135217 278.679283 
L 256.020405 267.564414 
L 236.097188 261.495267 
L 211.118632 272.419015 
z
" style="fill:#134a71;"/>
    <path clip-path="url(#p623f6ae29a)" d="M 191.447388 266.266754 
L 216.512481 255.529239 
L 216.20387 94.917597 
L 190.29889 103.453541 
z
" style="fill:#103c5a;"/>
    <path clip-path="url(#p623f6ae29a)" d="M 185.350719 283.687969 
L 211.118632 272.419015 
L 191.447388 266.266754 
L 165.597143 277.340617 
z
" style="fill:#134a71;"/>
    <path clip-path="url(#p623f6ae29a)" d="M 256.020405 267.564414 
L 236.097188 261.495267 
L 236.433705 99.659312 
L 257.02487 104.48572 
z
" style="fill:#1f77b4;"/>
    <path clip-path="url(#p623f6ae29a)" d="M 251.506318 285.050426 
L 276.290985 273.739377 
L 256.020405 267.564414 
L 231.135217 278.679283 
z
" style="fill:#134a71;"/>
    <path clip-path="url(#p623f6ae29a)" d="M 211.118632 272.419015 
L 236.097188 261.495267 
L 236.433705 99.659312 
L 210.620988 108.348264 
z
" style="fill:#103c5a;"/>
    <path clip-path="url(#p623f6ae29a)" d="M 211.118632 272.419015 
L 236.097188 261.495267 
L 236.433705 99.659312 
L 210.620988 108.348264 
z
" style="fill:#103c5a;"/>
    <path clip-path="url(#p623f6ae29a)" d="M 211.118632 272.419015 
L 191.447388 266.266754 
L 190.29889 103.453541 
L 210.620988 108.348264 
z
" style="fill:#1f77b4;"/>
    <path clip-path="url(#p623f6ae29a)" d="M 211.118632 272.419015 
L 191.447388 266.266754 
L 190.29889 103.453541 
L 210.620988 108.348264 
z
" style="fill:#1f77b4;"/>
    <path clip-path="url(#p623f6ae29a)" d="M 205.456609 290.148529 
L 231.135217 278.679283 
L 211.118632 272.419015 
L 185.350719 283.687969 
z
" style="fill:#134a71;"/>
    <path clip-path="url(#p623f6ae29a)" d="M 276.290985 273.739377 
L 256.020405 267.564414 
L 257.02487 104.48572 
L 277.987134 109.39911 
z
" style="fill:#1f77b4;"/>
    <path clip-path="url(#p623f6ae29a)" d="M 272.241436 291.535418 
L 296.918093 280.022948 
L 276.290985 273.739377 
L 251.506318 285.050426 
z
" style="fill:#134a71;"/>
    <path clip-path="url(#p623f6ae29a)" d="M 165.597143 277.340617 
L 191.447388 266.266754 
L 190.29889 103.453541 
L 163.554978 112.265922 
z
" style="fill:#103c5a;"/>
    <path clip-path="url(#p623f6ae29a)" d="M 231.135217 278.679283 
L 256.020405 267.564414 
L 257.02487 104.48572 
L 231.311954 113.331831 
z
" style="fill:#103c5a;"/>
    <path clip-path="url(#p623f6ae29a)" d="M 231.135217 278.679283 
L 256.020405 267.564414 
L 257.02487 104.48572 
L 231.311954 113.331831 
z
" style="fill:#103c5a;"/>
    <path clip-path="url(#p623f6ae29a)" d="M 158.755428 295.318756 
L 185.350719 283.687969 
L 165.597143 277.340617 
L 138.924265 288.766884 
z
" style="fill:#134a71;"/>
    <path clip-path="url(#p623f6ae29a)" d="M 210.620988 108.348264 
L 236.433705 99.659312 
L 216.20387 94.917597 
L 190.29889 103.453541 
z
" style="fill:#134a71;"/>
    <path clip-path="url(#p623f6ae29a)" d="M 231.135217 278.679283 
L 211.118632 272.419015 
L 210.620988 108.348264 
L 231.311954 113.331831 
z
" style="fill:#1f77b4;"/>
    <path clip-path="url(#p623f6ae29a)" d="M 231.135217 278.679283 
L 211.118632 272.419015 
L 210.620988 108.348264 
L 231.311954 113.331831 
z
" style="fill:#1f77b4;"/>
    <path clip-path="url(#p623f6ae29a)" d="M 225.924324 296.725353 
L 251.506318 285.050426 
L 231.135217 278.679283 
L 205.456609 290.148529 
z
" style="fill:#134a71;"/>
    <path clip-path="url(#p623f6ae29a)" d="M 296.918093 280.022948 
L 276.290985 273.739377 
L 277.987134 109.39911 
L 299.33062 114.401856 
z
" style="fill:#1f77b4;"/>
    <path clip-path="url(#p623f6ae29a)" d="M 293.350418 298.137337 
L 317.911217 286.418017 
L 296.918093 280.022948 
L 272.241436 291.535418 
z
" style="fill:#134a71;"/>
    <path clip-path="url(#p623f6ae29a)" d="M 185.350719 283.687969 
L 211.118632 272.419015 
L 210.620988 108.348264 
L 183.964687 117.321179 
z
" style="fill:#103c5a;"/>
    <path clip-path="url(#p623f6ae29a)" d="M 185.350719 283.687969 
L 211.118632 272.419015 
L 210.620988 108.348264 
L 183.964687 117.321179 
z
" style="fill:#103c5a;"/>
    <path clip-path="url(#p623f6ae29a)" d="M 251.506318 285.050426 
L 276.290985 273.739377 
L 277.987134 109.39911 
L 252.381922 118.406683 
z
" style="fill:#103c5a;"/>
    <path clip-path="url(#p623f6ae29a)" d="M 251.506318 285.050426 
L 276.290985 273.739377 
L 277.987134 109.39911 
L 252.381922 118.406683 
z
" style="fill:#103c5a;"/>
    <path clip-path="url(#p623f6ae29a)" d="M 185.350719 283.687969 
L 165.597143 277.340617 
L 163.554978 112.265922 
L 183.964687 117.321179 
z
" style="fill:#1f77b4;"/>
    <path clip-path="url(#p623f6ae29a)" d="M 185.350719 283.687969 
L 165.597143 277.340617 
L 163.554978 112.265922 
L 183.964687 117.321179 
z
" style="fill:#1f77b4;"/>
    <path clip-path="url(#p623f6ae29a)" d="M 178.94602 301.989377 
L 205.456609 290.148529 
L 185.350719 283.687969 
L 158.755428 295.318756 
z
" style="fill:#134a71;"/>
    <path clip-path="url(#p623f6ae29a)" d="M 231.311954 113.331831 
L 257.02487 104.48572 
L 236.433705 99.659312 
L 210.620988 108.348264 
z
" style="fill:#134a71;"/>
    <path clip-path="url(#p623f6ae29a)" d="M 251.506318 285.050426 
L 231.135217 278.679283 
L 231.311954 113.331831 
L 252.381922 118.406683 
z
" style="fill:#1f77b4;"/>
    <path clip-path="url(#p623f6ae29a)" d="M 251.506318 285.050426 
L 231.135217 278.679283 
L 231.311954 113.331831 
L 252.381922 118.406683 
z
" style="fill:#1f77b4;"/>
    <path clip-path="url(#p623f6ae29a)" d="M 246.76372 303.421608 
L 272.241436 291.535418 
L 251.506318 285.050426 
L 225.924324 296.725353 
z
" style="fill:#134a71;"/>
    <path clip-path="url(#p623f6ae29a)" d="M 138.924265 288.766884 
L 165.597143 277.340617 
L 163.554978 112.265922 
L 135.93071 121.368388 
z
" style="fill:#103c5a;"/>
    <path clip-path="url(#p623f6ae29a)" d="M 317.911217 286.418017 
L 296.918093 280.022948 
L 299.33062 114.401856 
L 321.065822 119.496418 
z
" style="fill:#1f77b4;"/>
    <path clip-path="url(#p623f6ae29a)" d="M 314.843465 304.859374 
L 339.280187 292.927579 
L 317.911217 286.418017 
L 293.350418 298.137337 
z
" style="fill:#134a71;"/>
    <path clip-path="url(#p623f6ae29a)" d="M 205.456609 290.148529 
L 231.135217 278.679283 
L 231.311954 113.331831 
L 204.750963 122.469708 
z
" style="fill:#103c5a;"/>
    <path clip-path="url(#p623f6ae29a)" d="M 205.456609 290.148529 
L 231.135217 278.679283 
L 231.311954 113.331831 
L 204.750963 122.469708 
z
" style="fill:#103c5a;"/>
    <path clip-path="url(#p623f6ae29a)" d="M 158.755428 295.318756 
L 138.924265 288.766884 
L 137.78078 224.823594 
L 157.86456 230.880484 
z
" style="fill:#1f77b4;"/>
    <path clip-path="url(#p623f6ae29a)" d="M 131.292262 307.329086 
L 158.755428 295.318756 
L 138.924265 288.766884 
L 111.388853 300.562648 
z
" style="fill:#134a71;"/>
    <path clip-path="url(#p623f6ae29a)" d="M 272.241436 291.535418 
L 296.918093 280.022948 
L 299.33062 114.401856 
L 273.841403 123.575352 
z
" style="fill:#103c5a;"/>
    <path clip-path="url(#p623f6ae29a)" d="M 272.241436 291.535418 
L 296.918093 280.022948 
L 299.33062 114.401856 
L 273.841403 123.575352 
z
" style="fill:#103c5a;"/>
    <path clip-path="url(#p623f6ae29a)" d="M 183.964687 117.321179 
L 210.620988 108.348264 
L 190.29889 103.453541 
L 163.554978 112.265922 
z
" style="fill:#134a71;"/>
    <path clip-path="url(#p623f6ae29a)" d="M 205.456609 290.148529 
L 185.350719 283.687969 
L 183.964687 117.321179 
L 204.750963 122.469708 
z
" style="fill:#1f77b4;"/>
    <path clip-path="url(#p623f6ae29a)" d="M 205.456609 290.148529 
L 185.350719 283.687969 
L 183.964687 117.321179 
L 204.750963 122.469708 
z
" style="fill:#1f77b4;"/>
    <path clip-path="url(#p623f6ae29a)" d="M 199.5059 308.782004 
L 225.924324 296.725353 
L 205.456609 290.148529 
L 178.94602 301.989377 
z
" style="fill:#134a71;"/>
    <path clip-path="url(#p623f6ae29a)" d="M 111.388853 300.562648 
L 138.924265 288.766884 
L 137.78078 224.823594 
L 109.85879 235.72924 
z
" style="fill:#103c5a;"/>
    <path clip-path="url(#p623f6ae29a)" d="M 339.280187 292.927579 
L 317.911217 286.418017 
L 320.385536 155.492845 
L 342.357337 160.975304 
z
" style="fill:#1f77b4;"/>
    <path clip-path="url(#p623f6ae29a)" d="M 252.381922 118.406683 
L 277.987134 109.39911 
L 257.02487 104.48572 
L 231.311954 113.331831 
z
" style="fill:#134a71;"/>
    <path clip-path="url(#p623f6ae29a)" d="M 272.241436 291.535418 
L 251.506318 285.050426 
L 252.381922 118.406683 
L 273.841403 123.575352 
z
" style="fill:#1f77b4;"/>
    <path clip-path="url(#p623f6ae29a)" d="M 272.241436 291.535418 
L 251.506318 285.050426 
L 252.381922 118.406683 
L 273.841403 123.575352 
z
" style="fill:#1f77b4;"/>
    <path clip-path="url(#p623f6ae29a)" d="M 267.985014 310.240577 
L 293.350418 298.137337 
L 272.241436 291.535418 
L 246.76372 303.421608 
z
" style="fill:#134a71;"/>
    <path clip-path="url(#p623f6ae29a)" d="M 158.755428 295.318756 
L 185.350719 283.687969 
L 183.964687 117.321179 
L 156.42276 126.59221 
z
" style="fill:#103c5a;"/>
    <path clip-path="url(#p623f6ae29a)" d="M 158.755428 295.318756 
L 185.350719 283.687969 
L 183.964687 117.321179 
L 156.42276 126.59221 
z
" style="fill:#103c5a;"/>
    <path clip-path="url(#p623f6ae29a)" d="M 293.350418 298.137337 
L 317.911217 286.418017 
L 320.385536 155.492845 
L 295.194113 165.364949 
z
" style="fill:#103c5a;"/>
    <path clip-path="url(#p623f6ae29a)" d="M 225.924324 296.725353 
L 251.506318 285.050426 
L 252.381922 118.406683 
L 225.924324 127.714114 
z
" style="fill:#103c5a;"/>
    <path clip-path="url(#p623f6ae29a)" d="M 225.924324 296.725353 
L 251.506318 285.050426 
L 252.381922 118.406683 
L 225.924324 127.714114 
z
" style="fill:#103c5a;"/>
    <path clip-path="url(#p623f6ae29a)" d="M 158.755428 295.318756 
L 138.924265 288.766884 
L 135.93071 121.368388 
L 156.42276 126.59221 
z
" style="fill:#1f77b4;"/>
    <path clip-path="url(#p623f6ae29a)" d="M 151.56235 314.220182 
L 178.94602 301.989377 
L 158.755428 295.318756 
L 131.292262 307.329086 
z
" style="fill:#134a71;"/>
    <path clip-path="url(#p623f6ae29a)" d="M 293.350418 298.137337 
L 317.911217 286.418017 
L 321.065822 119.496418 
L 295.701297 128.840464 
z
" style="fill:#103c5a;"/>
    <path clip-path="url(#p623f6ae29a)" d="M 204.750963 122.469708 
L 231.311954 113.331831 
L 210.620988 108.348264 
L 183.964687 117.321179 
z
" style="fill:#134a71;"/>
    <path clip-path="url(#p623f6ae29a)" d="M 225.924324 296.725353 
L 205.456609 290.148529 
L 204.750963 122.469708 
L 225.924324 127.714114 
z
" style="fill:#1f77b4;"/>
    <path clip-path="url(#p623f6ae29a)" d="M 225.924324 296.725353 
L 205.456609 290.148529 
L 204.750963 122.469708 
L 225.924324 127.714114 
z
" style="fill:#1f77b4;"/>
    <path clip-path="url(#p623f6ae29a)" d="M 220.445295 315.700017 
L 246.76372 303.421608 
L 225.924324 296.725353 
L 199.5059 308.782004 
z
" style="fill:#134a71;"/>
    <path clip-path="url(#p623f6ae29a)" d="M 131.292262 307.329086 
L 158.755428 295.318756 
L 157.86456 230.880484 
L 130.016392 241.987171 
z
" style="fill:#103c5a;"/>
    <path clip-path="url(#p623f6ae29a)" d="M 293.350418 298.137337 
L 272.241436 291.535418 
L 273.758784 132.248474 
L 295.579867 137.585198 
z
" style="fill:#1f77b4;"/>
    <path clip-path="url(#p623f6ae29a)" d="M 314.843465 304.859374 
L 293.350418 298.137337 
L 294.364995 225.073286 
L 316.193811 231.222632 
z
" style="fill:#1f77b4;"/>
    <path clip-path="url(#p623f6ae29a)" d="M 273.841403 123.575352 
L 299.33062 114.401856 
L 277.987134 109.39911 
L 252.381922 118.406683 
z
" style="fill:#134a71;"/>
    <path clip-path="url(#p623f6ae29a)" d="M 293.350418 298.137337 
L 272.241436 291.535418 
L 273.841403 123.575352 
L 295.701297 128.840464 
z
" style="fill:#1f77b4;"/>
    <path clip-path="url(#p623f6ae29a)" d="M 289.598801 317.185664 
L 314.843465 304.859374 
L 293.350418 298.137337 
L 267.985014 310.240577 
z
" style="fill:#134a71;"/>
    <path clip-path="url(#p623f6ae29a)" d="M 130.016392 241.987171 
L 157.86456 230.880484 
L 137.78078 224.823594 
L 109.85879 235.72924 
z
" style="fill:#134a71;"/>
    <path clip-path="url(#p623f6ae29a)" d="M 178.94602 301.989377 
L 158.755428 295.318756 
L 157.068399 173.292577 
L 177.755138 178.998436 
z
" style="fill:#1f77b4;"/>
    <path clip-path="url(#p623f6ae29a)" d="M 178.94602 301.989377 
L 205.456609 290.148529 
L 204.750963 122.469708 
L 177.299235 131.914029 
z
" style="fill:#103c5a;"/>
    <path clip-path="url(#p623f6ae29a)" d="M 178.94602 301.989377 
L 205.456609 290.148529 
L 204.750963 122.469708 
L 177.299235 131.914029 
z
" style="fill:#103c5a;"/>
    <path clip-path="url(#p623f6ae29a)" d="M 131.292262 307.329086 
L 111.388853 300.562648 
L 109.85879 235.72924 
L 130.016392 241.987171 
z
" style="fill:#1f77b4;"/>
    <path clip-path="url(#p623f6ae29a)" d="M 314.843465 304.859374 
L 339.280187 292.927579 
L 342.357337 160.975304 
L 317.297595 171.031314 
z
" style="fill:#103c5a;"/>
    <path clip-path="url(#p623f6ae29a)" d="M 246.76372 303.421608 
L 272.241436 291.535418 
L 273.758784 132.248474 
L 247.457869 141.859063 
z
" style="fill:#103c5a;"/>
    <path clip-path="url(#p623f6ae29a)" d="M 267.985014 310.240577 
L 293.350418 298.137337 
L 294.364995 225.073286 
L 268.628438 236.146591 
z
" style="fill:#103c5a;"/>
    <path clip-path="url(#p623f6ae29a)" d="M 246.76372 303.421608 
L 272.241436 291.535418 
L 273.841403 123.575352 
L 247.495686 133.0571 
z
" style="fill:#103c5a;"/>
    <path clip-path="url(#p623f6ae29a)" d="M 131.292262 307.329086 
L 158.755428 295.318756 
L 157.068399 173.292577 
L 128.875691 183.567744 
z
" style="fill:#103c5a;"/>
    <path clip-path="url(#p623f6ae29a)" d="M 156.42276 126.59221 
L 183.964687 117.321179 
L 163.554978 112.265922 
L 135.93071 121.368388 
z
" style="fill:#134a71;"/>
    <path clip-path="url(#p623f6ae29a)" d="M 178.94602 301.989377 
L 158.755428 295.318756 
L 156.42276 126.59221 
L 177.299235 131.914029 
z
" style="fill:#1f77b4;"/>
    <path clip-path="url(#p623f6ae29a)" d="M 172.209342 321.239412 
L 199.5059 308.782004 
L 178.94602 301.989377 
L 151.56235 314.220182 
z
" style="fill:#134a71;"/>
    <path clip-path="url(#p623f6ae29a)" d="M 314.843465 304.859374 
L 293.350418 298.137337 
L 295.194113 165.364949 
L 317.297595 171.031314 
z
" style="fill:#1f77b4;"/>
    <path clip-path="url(#p623f6ae29a)" d="M 246.76372 303.421608 
L 225.924324 296.725353 
L 225.924324 136.443543 
L 247.457869 141.859063 
z
" style="fill:#1f77b4;"/>
    <path clip-path="url(#p623f6ae29a)" d="M 225.924324 127.714114 
L 252.381922 118.406683 
L 231.311954 113.331831 
L 204.750963 122.469708 
z
" style="fill:#134a71;"/>
    <path clip-path="url(#p623f6ae29a)" d="M 246.76372 303.421608 
L 225.924324 296.725353 
L 225.924324 127.714114 
L 247.495686 133.0571 
z
" style="fill:#1f77b4;"/>
    <path clip-path="url(#p623f6ae29a)" d="M 241.774811 322.746919 
L 267.985014 310.240577 
L 246.76372 303.421608 
L 220.445295 315.700017 
z
" style="fill:#134a71;"/>
    <path clip-path="url(#p623f6ae29a)" d="M 199.5059 308.782004 
L 178.94602 301.989377 
L 177.921829 196.213821 
L 198.92456 202.167308 
z
" style="fill:#1f77b4;"/>
    <path clip-path="url(#p623f6ae29a)" d="M 295.701297 128.840464 
L 321.065822 119.496418 
L 299.33062 114.401856 
L 273.841403 123.575352 
z
" style="fill:#134a71;"/>
    <path clip-path="url(#p623f6ae29a)" d="M 289.598801 317.185664 
L 267.985014 310.240577 
L 268.086077 298.602606 
L 289.753215 305.456651 
z
" style="fill:#1f77b4;"/>
    <path clip-path="url(#p623f6ae29a)" d="M 199.5059 308.782004 
L 225.924324 296.725353 
L 225.924324 136.443543 
L 198.619367 146.196562 
z
" style="fill:#103c5a;"/>
    <path clip-path="url(#p623f6ae29a)" d="M 267.985014 310.240577 
L 246.76372 303.421608 
L 247.248518 190.585269 
L 268.97267 196.506175 
z
" style="fill:#1f77b4;"/>
    <path clip-path="url(#p623f6ae29a)" d="M 317.297595 171.031314 
L 342.357337 160.975304 
L 320.385536 155.492845 
L 295.194113 165.364949 
z
" style="fill:#134a71;"/>
    <path clip-path="url(#p623f6ae29a)" d="M 199.5059 308.782004 
L 225.924324 296.725353 
L 225.924324 127.714114 
L 198.571056 137.33663 
z
" style="fill:#103c5a;"/>
    <path clip-path="url(#p623f6ae29a)" d="M 151.56235 314.220182 
L 178.94602 301.989377 
L 177.921829 196.213821 
L 149.913871 206.935383 
z
" style="fill:#103c5a;"/>
    <path clip-path="url(#p623f6ae29a)" d="M 267.985014 310.240577 
L 293.350418 298.137337 
L 295.579867 137.585198 
L 269.399301 147.377163 
z
" style="fill:#103c5a;"/>
    <path clip-path="url(#p623f6ae29a)" d="M 289.598801 317.185664 
L 314.843465 304.859374 
L 316.193811 231.222632 
L 290.582008 242.503145 
z
" style="fill:#103c5a;"/>
    <path clip-path="url(#p623f6ae29a)" d="M 220.445295 315.700017 
L 199.5059 308.782004 
L 199.176809 248.428501 
L 220.376406 254.86946 
z
" style="fill:#1f77b4;"/>
    <path clip-path="url(#p623f6ae29a)" d="M 241.774811 322.746919 
L 267.985014 310.240577 
L 268.086077 298.602606 
L 241.813532 310.945223 
z
" style="fill:#103c5a;"/>
    <path clip-path="url(#p623f6ae29a)" d="M 151.56235 314.220182 
L 178.94602 301.989377 
L 177.755138 178.998436 
L 149.645462 189.467071 
z
" style="fill:#103c5a;"/>
    <path clip-path="url(#p623f6ae29a)" d="M 177.299235 131.914029 
L 204.750963 122.469708 
L 183.964687 117.321179 
L 156.42276 126.59221 
z
" style="fill:#134a71;"/>
    <path clip-path="url(#p623f6ae29a)" d="M 220.445295 315.700017 
L 246.76372 303.421608 
L 247.248518 190.585269 
L 220.315681 201.248424 
z
" style="fill:#103c5a;"/>
    <path clip-path="url(#p623f6ae29a)" d="M 199.5059 308.782004 
L 178.94602 301.989377 
L 177.299235 131.914029 
L 198.571056 137.33663 
z
" style="fill:#1f77b4;"/>
    <path clip-path="url(#p623f6ae29a)" d="M 193.24385 328.390384 
L 220.445295 315.700017 
L 199.5059 308.782004 
L 172.209342 321.239412 
z
" style="fill:#134a71;"/>
    <path clip-path="url(#p623f6ae29a)" d="M 290.582008 242.503145 
L 316.193811 231.222632 
L 294.364995 225.073286 
L 268.628438 236.146591 
z
" style="fill:#134a71;"/>
    <path clip-path="url(#p623f6ae29a)" d="M 267.985014 310.240577 
L 246.76372 303.421608 
L 247.457869 141.859063 
L 269.399301 147.377163 
z
" style="fill:#1f77b4;"/>
    <path clip-path="url(#p623f6ae29a)" d="M 289.598801 317.185664 
L 267.985014 310.240577 
L 268.628438 236.146591 
L 290.582008 242.503145 
z
" style="fill:#1f77b4;"/>
    <path clip-path="url(#p623f6ae29a)" d="M 247.495686 133.0571 
L 273.841403 123.575352 
L 252.381922 118.406683 
L 225.924324 127.714114 
z
" style="fill:#134a71;"/>
    <path clip-path="url(#p623f6ae29a)" d="M 172.209342 321.239412 
L 199.5059 308.782004 
L 199.176809 248.428501 
L 171.52896 260.027936 
z
" style="fill:#103c5a;"/>
    <path clip-path="url(#p623f6ae29a)" d="M 241.774811 322.746919 
L 220.445295 315.700017 
L 220.433933 305.666717 
L 241.807989 312.634709 
z
" style="fill:#1f77b4;"/>
    <path clip-path="url(#p623f6ae29a)" d="M 263.505452 329.926345 
L 289.598801 317.185664 
L 267.985014 310.240577 
L 241.774811 322.746919 
z
" style="fill:#134a71;"/>
    <path clip-path="url(#p623f6ae29a)" d="M 151.56235 314.220182 
L 131.292262 307.329086 
L 128.875691 183.567744 
L 149.645462 189.467071 
z
" style="fill:#1f77b4;"/>
    <path clip-path="url(#p623f6ae29a)" d="M 263.598124 318.031108 
L 289.753215 305.456651 
L 268.086077 298.602606 
L 241.813532 310.945223 
z
" style="fill:#134a71;"/>
    <path clip-path="url(#p623f6ae29a)" d="M 220.445295 315.700017 
L 246.76372 303.421608 
L 247.457869 141.859063 
L 220.259679 151.797523 
z
" style="fill:#103c5a;"/>
    <path clip-path="url(#p623f6ae29a)" d="M 193.24385 328.390384 
L 220.445295 315.700017 
L 220.433933 305.666717 
L 193.174937 318.215173 
z
" style="fill:#103c5a;"/>
    <path clip-path="url(#p623f6ae29a)" d="M 172.209342 321.239412 
L 199.5059 308.782004 
L 198.92456 202.167308 
L 171.007253 213.09194 
z
" style="fill:#103c5a;"/>
    <path clip-path="url(#p623f6ae29a)" d="M 149.645462 189.467071 
L 177.755138 178.998436 
L 157.068399 173.292577 
L 128.875691 183.567744 
z
" style="fill:#134a71;"/>
    <path clip-path="url(#p623f6ae29a)" d="M 263.505452 329.926345 
L 289.598801 317.185664 
L 289.753215 305.456651 
L 263.598124 318.031108 
z
" style="fill:#103c5a;"/>
    <path clip-path="url(#p623f6ae29a)" d="M 220.445295 315.700017 
L 199.5059 308.782004 
L 198.619367 146.196562 
L 220.259679 151.797523 
z
" style="fill:#1f77b4;"/>
    <path clip-path="url(#p623f6ae29a)" d="M 198.571056 137.33663 
L 225.924324 127.714114 
L 204.750963 122.469708 
L 177.299235 131.914029 
z
" style="fill:#134a71;"/>
    <path clip-path="url(#p623f6ae29a)" d="M 269.399301 147.377163 
L 295.579867 137.585198 
L 273.758784 132.248474 
L 247.457869 141.859063 
z
" style="fill:#134a71;"/>
    <path clip-path="url(#p623f6ae29a)" d="M 241.774811 322.746919 
L 267.985014 310.240577 
L 268.97267 196.506175 
L 242.153353 207.371987 
z
" style="fill:#103c5a;"/>
    <path clip-path="url(#p623f6ae29a)" d="M 214.676888 335.676841 
L 241.774811 322.746919 
L 220.445295 315.700017 
L 193.24385 328.390384 
z
" style="fill:#134a71;"/>
    <path clip-path="url(#p623f6ae29a)" d="M 172.209342 321.239412 
L 151.56235 314.220182 
L 149.913871 206.935383 
L 171.007253 213.09194 
z
" style="fill:#1f77b4;"/>
    <path clip-path="url(#p623f6ae29a)" d="M 263.505452 329.926345 
L 241.774811 322.746919 
L 241.774811 322.746919 
L 263.505452 329.926345 
z
" style="fill:#103c5a;"/>
    <path clip-path="url(#p623f6ae29a)" d="M 193.24385 328.390384 
L 220.445295 315.700017 
L 220.376406 254.86946 
L 192.825968 266.688573 
z
" style="fill:#103c5a;"/>
    <path clip-path="url(#p623f6ae29a)" d="M 214.652945 325.420544 
L 241.807989 312.634709 
L 220.433933 305.666717 
L 193.174937 318.215173 
z
" style="fill:#134a71;"/>
    <path clip-path="url(#p623f6ae29a)" d="M 263.505452 329.926345 
L 241.774811 322.746919 
L 241.813532 310.945223 
L 263.598124 318.031108 
z
" style="fill:#1f77b4;"/>
    <path clip-path="url(#p623f6ae29a)" d="M 192.825968 266.688573 
L 220.376406 254.86946 
L 199.176809 248.428501 
L 171.52896 260.027936 
z
" style="fill:#134a71;"/>
    <path clip-path="url(#p623f6ae29a)" d="M 171.007253 213.09194 
L 198.92456 202.167308 
L 177.921829 196.213821 
L 149.913871 206.935383 
z
" style="fill:#134a71;"/>
    <path clip-path="url(#p623f6ae29a)" d="M 241.774811 322.746919 
L 220.445295 315.700017 
L 220.315681 201.248424 
L 242.153353 207.371987 
z
" style="fill:#1f77b4;"/>
    <path clip-path="url(#p623f6ae29a)" d="M 214.676888 335.676841 
L 241.774811 322.746919 
L 241.774811 322.746919 
L 214.676888 335.676841 
z
" style="fill:#103c5a;"/>
    <path clip-path="url(#p623f6ae29a)" d="M 193.24385 328.390384 
L 172.209342 321.239412 
L 171.52896 260.027936 
L 192.825968 266.688573 
z
" style="fill:#1f77b4;"/>
    <path clip-path="url(#p623f6ae29a)" d="M 214.676888 335.676841 
L 241.774811 322.746919 
L 241.807989 312.634709 
L 214.652945 325.420544 
z
" style="fill:#103c5a;"/>
    <path clip-path="url(#p623f6ae29a)" d="M 242.153353 207.371987 
L 268.97267 196.506175 
L 247.248518 190.585269 
L 220.315681 201.248424 
z
" style="fill:#134a71;"/>
    <path clip-path="url(#p623f6ae29a)" d="M 220.259679 151.797523 
L 247.457869 141.859063 
L 225.924324 136.443543 
L 198.619367 146.196562 
z
" style="fill:#134a71;"/>
    <path clip-path="url(#p623f6ae29a)" d="M 214.676888 335.676841 
L 193.24385 328.390384 
L 193.174937 318.215173 
L 214.652945 325.420544 
z
" style="fill:#1f77b4;"/>
    <path clip-path="url(#p623f6ae29a)" d="M 236.519888 343.10267 
L 263.505452 329.926345 
L 241.774811 322.746919 
L 214.676888 335.676841 
z
" style="fill:#134a71;"/>
    <path clip-path="url(#p623f6ae29a)" d="M 236.519888 343.10267 
L 263.505452 329.926345 
L 241.774811 322.746919 
L 214.676888 335.676841 
z
" style="fill:#134a71;"/>
    <path clip-path="url(#p623f6ae29a)" d="M 236.519888 343.10267 
L 263.505452 329.926345 
L 263.505452 329.926345 
L 236.519888 343.10267 
z
" style="fill:#103c5a;"/>
    <path clip-path="url(#p623f6ae29a)" d="M 236.519888 343.10267 
L 214.676888 335.676841 
L 214.676888 335.676841 
L 236.519888 343.10267 
z
" style="fill:#103c5a;"/>
   </g>
   <g id="text_25">
    <!-- Timeout(=15m) result out of 100 trials -->
    <defs>
     <path d="M -0.296875 72.90625 
L 61.375 72.90625 
L 61.375 64.59375 
L 35.5 64.59375 
L 35.5 0 
L 25.59375 0 
L 25.59375 64.59375 
L -0.296875 64.59375 
z
" id="DejaVuSans-54"/>
     <path d="M 31 75.875 
Q 24.46875 64.65625 21.28125 53.65625 
Q 18.109375 42.671875 18.109375 31.390625 
Q 18.109375 20.125 21.3125 9.0625 
Q 24.515625 -2 31 -13.1875 
L 23.1875 -13.1875 
Q 15.875 -1.703125 12.234375 9.375 
Q 8.59375 20.453125 8.59375 31.390625 
Q 8.59375 42.28125 12.203125 53.3125 
Q 15.828125 64.359375 23.1875 75.875 
z
" id="DejaVuSans-28"/>
     <path d="M 10.59375 45.40625 
L 73.1875 45.40625 
L 73.1875 37.203125 
L 10.59375 37.203125 
z
M 10.59375 25.484375 
L 73.1875 25.484375 
L 73.1875 17.1875 
L 10.59375 17.1875 
z
" id="DejaVuSans-3d"/>
     <path d="M 8.015625 75.875 
L 15.828125 75.875 
Q 23.140625 64.359375 26.78125 53.3125 
Q 30.421875 42.28125 30.421875 31.390625 
Q 30.421875 20.453125 26.78125 9.375 
Q 23.140625 -1.703125 15.828125 -13.1875 
L 8.015625 -13.1875 
Q 14.5 -2 17.703125 9.0625 
Q 20.90625 20.125 20.90625 31.390625 
Q 20.90625 42.671875 17.703125 53.65625 
Q 14.5 64.65625 8.015625 75.875 
z
" id="DejaVuSans-29"/>
     <path id="DejaVuSans-20"/>
     <path d="M 41.109375 46.296875 
Q 39.59375 47.171875 37.8125 47.578125 
Q 36.03125 48 33.890625 48 
Q 26.265625 48 22.1875 43.046875 
Q 18.109375 38.09375 18.109375 28.8125 
L 18.109375 0 
L 9.078125 0 
L 9.078125 54.6875 
L 18.109375 54.6875 
L 18.109375 46.1875 
Q 20.953125 51.171875 25.484375 53.578125 
Q 30.03125 56 36.53125 56 
Q 37.453125 56 38.578125 55.875 
Q 39.703125 55.765625 41.0625 55.515625 
z
" id="DejaVuSans-72"/>
     <path d="M 37.109375 75.984375 
L 37.109375 68.5 
L 28.515625 68.5 
Q 23.6875 68.5 21.796875 66.546875 
Q 19.921875 64.59375 19.921875 59.515625 
L 19.921875 54.6875 
L 34.71875 54.6875 
L 34.71875 47.703125 
L 19.921875 47.703125 
L 19.921875 0 
L 10.890625 0 
L 10.890625 47.703125 
L 2.296875 47.703125 
L 2.296875 54.6875 
L 10.890625 54.6875 
L 10.890625 58.5 
Q 10.890625 67.625 15.140625 71.796875 
Q 19.390625 75.984375 28.609375 75.984375 
z
" id="DejaVuSans-66"/>
    </defs>
    <g transform="translate(104.865 72.4512)scale(0.12 -0.12)">
     <use xlink:href="#DejaVuSans-54"/>
     <use x="61.037109" xlink:href="#DejaVuSans-69"/>
     <use x="88.820312" xlink:href="#DejaVuSans-6d"/>
     <use x="186.232422" xlink:href="#DejaVuSans-65"/>
     <use x="247.755859" xlink:href="#DejaVuSans-6f"/>
     <use x="308.9375" xlink:href="#DejaVuSans-75"/>
     <use x="372.316406" xlink:href="#DejaVuSans-74"/>
     <use x="411.525391" xlink:href="#DejaVuSans-28"/>
     <use x="450.539062" xlink:href="#DejaVuSans-3d"/>
     <use x="534.328125" xlink:href="#DejaVuSans-31"/>
     <use x="597.951172" xlink:href="#DejaVuSans-35"/>
     <use x="661.574219" xlink:href="#DejaVuSans-6d"/>
     <use x="758.986328" xlink:href="#DejaVuSans-29"/>
     <use x="798" xlink:href="#DejaVuSans-20"/>
     <use x="829.787109" xlink:href="#DejaVuSans-72"/>
     <use x="870.869141" xlink:href="#DejaVuSans-65"/>
     <use x="932.392578" xlink:href="#DejaVuSans-73"/>
     <use x="984.492188" xlink:href="#DejaVuSans-75"/>
     <use x="1047.871094" xlink:href="#DejaVuSans-6c"/>
     <use x="1075.654297" xlink:href="#DejaVuSans-74"/>
     <use x="1114.863281" xlink:href="#DejaVuSans-20"/>
     <use x="1146.650391" xlink:href="#DejaVuSans-6f"/>
     <use x="1207.832031" xlink:href="#DejaVuSans-75"/>
     <use x="1271.210938" xlink:href="#DejaVuSans-74"/>
     <use x="1310.419922" xlink:href="#DejaVuSans-20"/>
     <use x="1342.207031" xlink:href="#DejaVuSans-6f"/>
     <use x="1403.388672" xlink:href="#DejaVuSans-66"/>
     <use x="1438.59375" xlink:href="#DejaVuSans-20"/>
     <use x="1470.380859" xlink:href="#DejaVuSans-31"/>
     <use x="1534.003906" xlink:href="#DejaVuSans-30"/>
     <use x="1597.626953" xlink:href="#DejaVuSans-30"/>
     <use x="1661.25" xlink:href="#DejaVuSans-20"/>
     <use x="1693.037109" xlink:href="#DejaVuSans-74"/>
     <use x="1732.246094" xlink:href="#DejaVuSans-72"/>
     <use x="1773.359375" xlink:href="#DejaVuSans-69"/>
     <use x="1801.142578" xlink:href="#DejaVuSans-61"/>
     <use x="1862.421875" xlink:href="#DejaVuSans-6c"/>
     <use x="1890.205078" xlink:href="#DejaVuSans-73"/>
    </g>
   </g>
  </g>
 </g>
 <defs>
  <clipPath id="p623f6ae29a">
   <rect height="332.64" width="334.8" x="54" y="51.84"/>
  </clipPath>
 </defs>
</svg>
